<svg width="12" height="12" viewBox="0 0 12 12" fill="none" xmlns="http://www.w3.org/2000/svg">
<path fill-rule="evenodd" clip-rule="evenodd" d="M1.16444 5.08198C1.209 4.99326 1.28692 4.92583 1.38111 4.89448C1.47531 4.86313 1.5781 4.87041 1.66694 4.91473L5.99969 7.07998L10.3317 4.91398C10.3758 4.89146 10.4239 4.87789 10.4732 4.87405C10.5225 4.87022 10.5721 4.87618 10.6192 4.89161C10.6662 4.90703 10.7097 4.93161 10.7472 4.96393C10.7847 4.99626 10.8154 5.03567 10.8375 5.07992C10.8597 5.12417 10.8729 5.17236 10.8764 5.22173C10.8798 5.2711 10.8735 5.32067 10.8577 5.36757C10.8419 5.41447 10.817 5.45779 10.7844 5.49501C10.7518 5.53224 10.7121 5.56265 10.6677 5.58448L6.16769 7.83448C6.11554 7.86061 6.05801 7.87421 5.99969 7.87421C5.94136 7.87421 5.88383 7.86061 5.83169 7.83448L1.33169 5.58448C1.24297 5.53992 1.17554 5.462 1.14419 5.3678C1.11284 5.2736 1.12012 5.17081 1.16444 5.08198Z" fill="white"/>
</svg>
