<svg width="36" height="36" viewBox="0 0 36 36" fill="none" xmlns="http://www.w3.org/2000/svg">
<circle cx="18" cy="18" r="17.5" fill="white" stroke="#1CD167"/>
<g clip-path="url(#clip0_117_943)">
<path d="M18 26C18 26 24 20.314 24 16C24 14.4087 23.3679 12.8826 22.2426 11.7574C21.1174 10.6321 19.5913 10 18 10C16.4087 10 14.8826 10.6321 13.7574 11.7574C12.6321 12.8826 12 14.4087 12 16C12 20.314 18 26 18 26ZM18 19C17.2044 19 16.4413 18.6839 15.8787 18.1213C15.3161 17.5587 15 16.7956 15 16C15 15.2044 15.3161 14.4413 15.8787 13.8787C16.4413 13.3161 17.2044 13 18 13C18.7956 13 19.5587 13.3161 20.1213 13.8787C20.6839 14.4413 21 15.2044 21 16C21 16.7956 20.6839 17.5587 20.1213 18.1213C19.5587 18.6839 18.7956 19 18 19Z" fill="#1CD167"/>
</g>
<defs>
<clipPath id="clip0_117_943">
<rect width="16" height="16" fill="white" transform="translate(10 10)"/>
</clipPath>
</defs>
</svg>
